<?xml version="1.0" encoding="utf-8"?>
<!-- Svg Vector Icons : http://www.onlinewebfonts.com/icon -->
<!DOCTYPE svg PUBLIC "-//W3C//DTD SVG 1.1//EN" "http://www.w3.org/Graphics/SVG/1.1/DTD/svg11.dtd">
<svg version="1.1" xmlns="http://www.w3.org/2000/svg" xmlns:xlink="http://www.w3.org/1999/xlink" x="0px" y="0px" viewBox="0 0 1000 1000" enable-background="new 0 0 1000 1000" xml:space="preserve">
<metadata> Svg Vector Icons : http://www.onlinewebfonts.com/icon </metadata>
<g><g><path d="M500,10C233.2,10,16.3,223.2,10.1,488.5C15.8,257,191.8,71.3,408.1,71.3c219.9,0,398.1,192,398.1,428.8c0,50.7,41.1,91.9,91.9,91.9S990,550.7,990,500C990,229.4,770.6,10,500,10z M500,990c266.8,0,483.7-213.2,489.9-478.5c-5.7,231.5-181.7,417.2-398,417.2c-219.9,0-398.1-192-398.1-428.8c0-50.7-41.1-91.9-91.9-91.9S10,449.3,10,500C10,770.6,229.4,990,500,990z"/></g></g>
</svg>